<svg xmlns="http://www.w3.org/2000/svg" xmlns:xlink="http://www.w3.org/1999/xlink" width="180" zoomAndPan="magnify" viewBox="0 0 135 117.749996" height="157" preserveAspectRatio="xMidYMid meet" version="1.0"><defs><clipPath id="a428707aa1"><path d="M 28 0 L 134.855469 0 L 134.855469 107 L 28 107 Z M 28 0 " clip-rule="nonzero"/></clipPath><clipPath id="87f70ba761"><path d="M 0.144531 11 L 107 11 L 107 117.5 L 0.144531 117.5 Z M 0.144531 11 " clip-rule="nonzero"/></clipPath></defs><g clip-path="url(#a428707aa1)"><path fill="#fbcd2f" d="M 134.824219 53.011719 C 134.824219 54.75 134.738281 56.480469 134.570312 58.207031 C 134.398438 59.9375 134.144531 61.652344 133.808594 63.355469 C 133.46875 65.058594 133.046875 66.738281 132.546875 68.402344 C 132.042969 70.0625 131.460938 71.695312 130.796875 73.296875 C 130.132812 74.902344 129.390625 76.46875 128.574219 78 C 127.757812 79.53125 126.867188 81.019531 125.90625 82.464844 C 124.941406 83.90625 123.910156 85.300781 122.8125 86.640625 C 121.710938 87.984375 120.546875 89.269531 119.324219 90.496094 C 118.097656 91.726562 116.8125 92.890625 115.472656 93.992188 C 114.132812 95.09375 112.742188 96.125 111.300781 97.089844 C 109.859375 98.054688 108.375 98.945312 106.847656 99.765625 C 105.316406 100.582031 103.753906 101.324219 102.152344 101.988281 C 100.550781 102.652344 98.917969 103.238281 97.261719 103.742188 C 95.601562 104.246094 93.921875 104.667969 92.222656 105.003906 C 90.523438 105.34375 88.808594 105.597656 87.085938 105.769531 C 85.359375 105.9375 83.628906 106.023438 81.898438 106.023438 C 80.164062 106.023438 78.433594 105.9375 76.710938 105.769531 C 74.984375 105.597656 73.269531 105.34375 71.570312 105.003906 C 69.871094 104.667969 68.191406 104.246094 66.53125 103.742188 C 64.875 103.238281 63.242188 102.652344 61.640625 101.988281 C 60.039062 101.324219 58.476562 100.582031 56.945312 99.765625 C 55.417969 98.945312 53.933594 98.054688 52.492188 97.089844 C 51.050781 96.125 49.660156 95.09375 48.320312 93.992188 C 46.980469 92.890625 45.699219 91.726562 44.472656 90.496094 C 43.246094 89.269531 42.082031 87.984375 40.984375 86.640625 C 39.882812 85.300781 38.851562 83.90625 37.890625 82.464844 C 36.925781 81.019531 36.035156 79.53125 35.21875 78 C 34.402344 76.46875 33.660156 74.902344 33 73.296875 C 32.335938 71.695312 31.75 70.0625 31.25 68.402344 C 30.746094 66.738281 30.324219 65.058594 29.988281 63.355469 C 29.648438 61.652344 29.394531 59.9375 29.222656 58.207031 C 29.054688 56.480469 28.96875 54.75 28.96875 53.011719 C 28.96875 51.277344 29.054688 49.542969 29.222656 47.816406 C 29.394531 46.089844 29.648438 44.371094 29.988281 42.667969 C 30.324219 40.96875 30.746094 39.285156 31.25 37.625 C 31.75 35.960938 32.335938 34.328125 33 32.726562 C 33.660156 31.121094 34.402344 29.554688 35.21875 28.023438 C 36.035156 26.492188 36.925781 25.003906 37.890625 23.558594 C 38.851562 22.117188 39.882812 20.722656 40.984375 19.382812 C 42.082031 18.039062 43.246094 16.753906 44.472656 15.527344 C 45.699219 14.300781 46.980469 13.132812 48.320312 12.03125 C 49.660156 10.933594 51.050781 9.898438 52.492188 8.933594 C 53.933594 7.96875 55.417969 7.078125 56.945312 6.257812 C 58.476562 5.441406 60.039062 4.699219 61.640625 4.035156 C 63.242188 3.371094 64.875 2.785156 66.53125 2.28125 C 68.191406 1.777344 69.871094 1.355469 71.570312 1.019531 C 73.269531 0.679688 74.984375 0.425781 76.710938 0.253906 C 78.433594 0.0859375 80.164062 0 81.898438 0 C 83.628906 0 85.359375 0.0859375 87.085938 0.253906 C 88.808594 0.425781 90.523438 0.679688 92.222656 1.019531 C 93.921875 1.355469 95.601562 1.777344 97.261719 2.28125 C 98.917969 2.785156 100.550781 3.371094 102.152344 4.035156 C 103.753906 4.699219 105.316406 5.441406 106.847656 6.257812 C 108.375 7.078125 109.859375 7.96875 111.300781 8.933594 C 112.742188 9.898438 114.132812 10.933594 115.472656 12.03125 C 116.8125 13.132812 118.097656 14.300781 119.324219 15.527344 C 120.546875 16.753906 121.710938 18.039062 122.8125 19.382812 C 123.910156 20.722656 124.941406 22.117188 125.90625 23.558594 C 126.867188 25.003906 127.757812 26.492188 128.574219 28.023438 C 129.390625 29.554688 130.132812 31.121094 130.796875 32.726562 C 131.460938 34.328125 132.042969 35.960938 132.546875 37.625 C 133.046875 39.285156 133.46875 40.96875 133.808594 42.667969 C 134.144531 44.371094 134.398438 46.089844 134.570312 47.816406 C 134.738281 49.542969 134.824219 51.277344 134.824219 53.011719 Z M 134.824219 53.011719 " fill-opacity="1" fill-rule="nonzero"/></g><path fill="#ffb102" d="M 122.832031 53.011719 C 122.832031 75.667969 104.488281 94.042969 81.867188 94.042969 C 69.429688 94.042969 58.269531 88.480469 50.757812 79.679688 C 49.511719 78.226562 48.382812 76.707031 47.375 75.101562 C 45.621094 72.367188 44.199219 69.425781 43.128906 66.300781 C 41.703125 62.140625 40.933594 57.648438 40.933594 53.011719 C 40.933594 30.355469 59.277344 11.980469 81.898438 11.980469 C 86.527344 11.980469 91.011719 12.753906 95.167969 14.183594 C 98.28125 15.253906 101.222656 16.679688 103.953125 18.433594 C 105.554688 19.472656 107.070312 20.605469 108.523438 21.824219 C 117.28125 29.34375 122.832031 40.523438 122.832031 53.011719 Z M 122.832031 53.011719 " fill-opacity="1" fill-rule="nonzero"/><path fill="#ffbc19" d="M 103.953125 18.433594 L 47.375 75.101562 C 48.414062 76.707031 49.539062 78.226562 50.757812 79.679688 L 108.523438 21.851562 C 107.070312 20.605469 105.554688 19.472656 103.953125 18.433594 Z M 103.953125 18.433594 " fill-opacity="1" fill-rule="nonzero"/><path fill="#ffbc19" d="M 81.898438 11.980469 C 59.277344 11.980469 40.933594 30.355469 40.933594 53.011719 C 40.933594 57.648438 41.703125 62.140625 43.128906 66.300781 L 95.164062 14.183594 C 91.011719 12.753906 86.527344 11.980469 81.898438 11.980469 Z M 81.898438 11.980469 " fill-opacity="1" fill-rule="nonzero"/><path fill="#e99302" d="M 109.59375 20.574219 C 108.109375 19.296875 106.503906 18.105469 104.84375 17.035156 C 101.964844 15.191406 98.90625 13.707031 95.699219 12.605469 C 91.277344 11.089844 86.617188 10.316406 81.898438 10.316406 C 58.386719 10.316406 39.269531 29.464844 39.269531 53.011719 C 39.269531 57.738281 40.042969 62.40625 41.554688 66.835938 C 42.652344 70.046875 44.136719 73.140625 45.980469 75.996094 C 47.046875 77.660156 48.234375 79.265625 49.511719 80.75 C 57.613281 90.238281 69.429688 95.675781 81.898438 95.675781 C 105.40625 95.675781 124.523438 76.53125 124.523438 52.980469 C 124.496094 40.523438 119.0625 28.691406 109.59375 20.574219 Z M 81.898438 93 C 70.230469 93 59.160156 87.886719 51.558594 78.996094 C 50.34375 77.601562 49.242188 76.082031 48.234375 74.539062 C 46.511719 71.832031 45.117188 68.949219 44.109375 65.945312 C 42.683594 61.78125 41.972656 57.414062 41.972656 52.980469 C 41.972656 30.921875 59.871094 12.992188 81.898438 12.992188 C 86.320312 12.992188 90.683594 13.707031 94.839844 15.132812 C 97.835938 16.175781 100.71875 17.542969 103.417969 19.265625 C 104.992188 20.277344 106.476562 21.378906 107.871094 22.597656 C 116.746094 30.207031 121.851562 41.296875 121.851562 52.980469 C 121.824219 75.042969 103.921875 93 81.898438 93 Z M 81.898438 93 " fill-opacity="1" fill-rule="nonzero"/><g clip-path="url(#87f70ba761)"><path fill="#fbcd2f" d="M 106.03125 64.488281 C 106.03125 66.226562 105.945312 67.957031 105.777344 69.683594 C 105.605469 71.414062 105.351562 73.128906 105.011719 74.832031 C 104.675781 76.535156 104.253906 78.214844 103.75 79.878906 C 103.25 81.539062 102.664062 83.171875 102 84.773438 C 101.339844 86.378906 100.597656 87.945312 99.78125 89.476562 C 98.964844 91.007812 98.074219 92.496094 97.109375 93.941406 C 96.148438 95.382812 95.117188 96.777344 94.015625 98.117188 C 92.917969 99.460938 91.753906 100.746094 90.527344 101.972656 C 89.300781 103.203125 88.019531 104.367188 86.679688 105.46875 C 85.339844 106.570312 83.949219 107.601562 82.507812 108.566406 C 81.066406 109.53125 79.582031 110.421875 78.054688 111.242188 C 76.523438 112.058594 74.957031 112.800781 73.359375 113.464844 C 71.757812 114.128906 70.125 114.714844 68.46875 115.21875 C 66.808594 115.722656 65.128906 116.144531 63.429688 116.480469 C 61.726562 116.820312 60.015625 117.074219 58.289062 117.246094 C 56.566406 117.414062 54.835938 117.5 53.101562 117.5 C 51.371094 117.5 49.640625 117.414062 47.914062 117.246094 C 46.191406 117.074219 44.476562 116.820312 42.777344 116.480469 C 41.078125 116.144531 39.398438 115.722656 37.738281 115.21875 C 36.082031 114.714844 34.449219 114.128906 32.847656 113.464844 C 31.246094 112.800781 29.683594 112.058594 28.152344 111.242188 C 26.625 110.421875 25.140625 109.53125 23.699219 108.566406 C 22.257812 107.601562 20.867188 106.570312 19.527344 105.46875 C 18.1875 104.367188 16.902344 103.203125 15.675781 101.972656 C 14.453125 100.746094 13.289062 99.460938 12.1875 98.117188 C 11.089844 96.777344 10.058594 95.382812 9.09375 93.941406 C 8.132812 92.496094 7.242188 91.007812 6.425781 89.476562 C 5.609375 87.945312 4.867188 86.378906 4.203125 84.773438 C 3.539062 83.171875 2.957031 81.539062 2.453125 79.878906 C 1.953125 78.214844 1.53125 76.535156 1.191406 74.832031 C 0.855469 73.128906 0.601562 71.414062 0.429688 69.683594 C 0.261719 67.957031 0.175781 66.226562 0.175781 64.488281 C 0.175781 62.753906 0.261719 61.019531 0.429688 59.292969 C 0.601562 57.566406 0.855469 55.847656 1.191406 54.144531 C 1.53125 52.445312 1.953125 50.761719 2.453125 49.101562 C 2.957031 47.4375 3.539062 45.804688 4.203125 44.203125 C 4.867188 42.597656 5.609375 41.03125 6.425781 39.5 C 7.242188 37.96875 8.132812 36.480469 9.09375 35.035156 C 10.058594 33.59375 11.089844 32.199219 12.1875 30.859375 C 13.289062 29.515625 14.453125 28.230469 15.675781 27.003906 C 16.902344 25.777344 18.1875 24.609375 19.527344 23.507812 C 20.867188 22.410156 22.257812 21.375 23.699219 20.410156 C 25.140625 19.445312 26.625 18.554688 28.152344 17.734375 C 29.683594 16.917969 31.246094 16.175781 32.847656 15.511719 C 34.449219 14.847656 36.082031 14.261719 37.738281 13.757812 C 39.398438 13.253906 41.078125 12.832031 42.777344 12.496094 C 44.476562 12.15625 46.191406 11.902344 47.914062 11.730469 C 49.640625 11.5625 51.371094 11.476562 53.101562 11.476562 C 54.835938 11.476562 56.566406 11.5625 58.289062 11.730469 C 60.015625 11.902344 61.726562 12.15625 63.429688 12.496094 C 65.128906 12.832031 66.808594 13.253906 68.46875 13.757812 C 70.125 14.261719 71.757812 14.847656 73.359375 15.511719 C 74.957031 16.175781 76.523438 16.917969 78.054688 17.734375 C 79.582031 18.554688 81.066406 19.445312 82.507812 20.410156 C 83.949219 21.375 85.339844 22.410156 86.679688 23.507812 C 88.019531 24.609375 89.300781 25.777344 90.527344 27.003906 C 91.753906 28.230469 92.917969 29.515625 94.015625 30.859375 C 95.117188 32.199219 96.148438 33.59375 97.109375 35.035156 C 98.074219 36.480469 98.964844 37.96875 99.78125 39.5 C 100.597656 41.03125 101.339844 42.597656 102 44.203125 C 102.664062 45.804688 103.25 47.4375 103.75 49.101562 C 104.253906 50.761719 104.675781 52.445312 105.011719 54.144531 C 105.351562 55.847656 105.605469 57.566406 105.777344 59.292969 C 105.945312 61.019531 106.03125 62.753906 106.03125 64.488281 Z M 106.03125 64.488281 " fill-opacity="1" fill-rule="nonzero"/></g><path fill="#ffb102" d="M 94.039062 64.488281 C 94.039062 87.144531 75.691406 105.519531 53.074219 105.519531 C 40.636719 105.519531 29.472656 99.957031 21.964844 91.15625 C 20.71875 89.703125 19.589844 88.183594 18.578125 86.578125 C 16.828125 83.84375 15.402344 80.902344 14.335938 77.777344 C 12.910156 73.617188 12.136719 69.125 12.136719 64.488281 C 12.136719 41.832031 30.484375 23.457031 53.101562 23.457031 C 57.734375 23.457031 62.214844 24.230469 66.371094 25.660156 C 69.488281 26.730469 72.425781 28.15625 75.160156 29.910156 C 76.761719 30.949219 78.277344 32.082031 79.730469 33.300781 C 88.488281 40.820312 94.039062 52 94.039062 64.488281 Z M 94.039062 64.488281 " fill-opacity="1" fill-rule="nonzero"/><path fill="#ffbc19" d="M 75.160156 29.910156 L 18.578125 86.578125 C 19.617188 88.183594 20.746094 89.703125 21.964844 91.15625 L 79.730469 33.328125 C 78.277344 32.082031 76.761719 30.949219 75.160156 29.910156 Z M 75.160156 29.910156 " fill-opacity="1" fill-rule="nonzero"/><path fill="#ffbc19" d="M 53.101562 23.457031 C 30.484375 23.457031 12.136719 41.832031 12.136719 64.488281 C 12.136719 69.125 12.910156 73.617188 14.335938 77.777344 L 66.371094 25.660156 C 62.214844 24.230469 57.734375 23.457031 53.101562 23.457031 Z M 53.101562 23.457031 " fill-opacity="1" fill-rule="nonzero"/><path fill="#e99302" d="M 80.796875 32.050781 C 79.316406 30.773438 77.710938 29.582031 76.050781 28.511719 C 73.167969 26.667969 70.113281 25.183594 66.90625 24.082031 C 62.484375 22.566406 57.824219 21.792969 53.101562 21.792969 C 29.59375 21.792969 10.476562 40.941406 10.476562 64.488281 C 10.476562 69.214844 11.246094 73.882812 12.761719 78.3125 C 13.859375 81.523438 15.34375 84.617188 17.183594 87.472656 C 18.253906 89.136719 19.441406 90.742188 20.71875 92.226562 C 28.820312 101.710938 40.636719 107.152344 53.101562 107.152344 C 76.613281 107.152344 95.730469 88.007812 95.730469 64.457031 C 95.699219 52 90.269531 40.167969 80.796875 32.050781 Z M 53.101562 104.476562 C 41.4375 104.476562 30.363281 99.363281 22.765625 90.472656 C 21.546875 89.078125 20.449219 87.558594 19.441406 86.015625 C 17.71875 83.308594 16.324219 80.425781 15.316406 77.421875 C 13.890625 73.257812 13.175781 68.890625 13.175781 64.457031 C 13.175781 42.398438 31.078125 24.46875 53.101562 24.46875 C 57.527344 24.46875 61.890625 25.183594 66.046875 26.609375 C 69.042969 27.652344 71.921875 29.019531 74.625 30.742188 C 76.199219 31.753906 77.683594 32.855469 79.078125 34.074219 C 87.953125 41.683594 93.058594 52.773438 93.058594 64.457031 C 93.027344 86.519531 75.128906 104.476562 53.101562 104.476562 Z M 53.101562 104.476562 " fill-opacity="1" fill-rule="nonzero"/><path fill="#e99302" d="M 56.574219 60.238281 C 56.011719 60.027344 55.449219 59.789062 54.914062 59.582031 L 54.914062 43.882812 C 55.0625 43.882812 55.210938 43.882812 55.359375 43.882812 C 60.316406 43.882812 64.175781 45.667969 66.253906 46.976562 L 68.6875 39.898438 C 65.71875 38.144531 60.96875 36.601562 55.566406 36.601562 C 55.359375 36.601562 55.121094 36.601562 54.914062 36.601562 L 54.914062 30.328125 L 51.261719 30.328125 L 51.261719 36.957031 C 42.386719 38.503906 37.164062 44.804688 37.164062 52.269531 C 37.164062 58.660156 41.675781 63.984375 51.261719 67.371094 L 51.261719 85.152344 C 51.113281 85.152344 50.964844 85.152344 50.816406 85.152344 C 45.980469 85.152344 40.902344 83.160156 38.023438 81.285156 L 35.589844 88.691406 C 39.328125 90.890625 44.730469 92.316406 50.578125 92.316406 C 50.789062 92.316406 51.023438 92.316406 51.234375 92.316406 L 51.234375 98.589844 L 54.882812 98.589844 L 54.882812 92.050781 C 64.886719 90.710938 70.527344 84.585938 70.527344 76.320312 C 70.558594 68.382812 65.835938 63.773438 56.574219 60.238281 Z M 51.261719 57.917969 C 47.96875 56.164062 46.425781 54.261719 46.425781 51.167969 C 46.425781 48.285156 48.117188 45.726562 51.261719 44.566406 Z M 54.914062 84.707031 L 54.914062 68.917969 C 59.394531 71.089844 61.175781 73.46875 61.175781 77.214844 C 61.207031 80.691406 59.1875 83.605469 54.914062 84.707031 Z M 54.914062 84.707031 " fill-opacity="1" fill-rule="nonzero"/></svg>