<svg xmlns="http://www.w3.org/2000/svg" xmlns:xlink="http://www.w3.org/1999/xlink" width="1080" zoomAndPan="magnify" viewBox="0 0 810 809.999993" height="1080" preserveAspectRatio="xMidYMid meet" version="1.0"><path fill="#f6f5f9" d="M 797.183594 7.140625 C 795.824219 5.941406 794.351562 4.902344 792.761719 4.023438 C 791.175781 3.140625 789.515625 2.441406 787.777344 1.917969 C 786.039062 1.398438 784.265625 1.066406 782.457031 0.929688 C 780.644531 0.792969 778.84375 0.847656 777.046875 1.101562 C 728.582031 7.902344 681.230469 19.316406 634.988281 35.335938 C 632.652344 36.140625 630.335938 36.949219 628.183594 37.734375 C 624.011719 39.242188 619.84375 40.773438 615.695312 42.363281 L 612.554688 43.554688 C 608.890625 44.894531 605.25 46.324219 601.640625 47.84375 L 600.109375 48.46875 C 596.082031 50.117188 591.953125 51.828125 587.886719 53.542969 L 585.1875 54.730469 C 581.722656 56.21875 578.285156 57.730469 574.875 59.261719 L 572.742188 60.207031 C 568.714844 62.035156 564.683594 63.894531 560.65625 65.785156 L 558.644531 66.773438 C 555.21875 68.425781 551.816406 70.097656 548.433594 71.789062 L 546.035156 72.976562 C 542.007812 74.988281 538.144531 77.003906 534.253906 79.015625 L 533.230469 79.5625 C 529.644531 81.453125 526.101562 83.367188 522.554688 85.320312 L 520.117188 86.667969 C 512.507812 90.898438 504.8125 95.328125 497.300781 99.859375 L 494.964844 101.269531 C 491.460938 103.40625 487.957031 105.558594 484.492188 107.753906 L 484.3125 107.753906 L 483.789062 108.078125 C 480.070312 110.425781 476.363281 112.816406 472.671875 115.246094 L 470.660156 116.636719 C 467.457031 118.648438 464.273438 120.886719 461.050781 123.082031 L 459.542969 124.105469 C 455.9375 126.605469 452.351562 129.101562 448.789062 131.660156 L 447.117188 132.847656 C 444.035156 135.0625 441.074219 137.277344 437.933594 139.535156 L 435.917969 141.003906 C 432.414062 143.621094 428.929688 146.265625 425.46875 148.9375 L 424.601562 149.601562 C 421.460938 152.03125 418.339844 154.488281 415.238281 156.972656 L 413.082031 158.707031 C 406.375 164.101562 399.648438 169.679688 393.125 175.300781 L 390.96875 177.152344 C 387.949219 179.769531 384.929688 182.429688 381.96875 185.066406 L 381.242188 185.710938 C 378.019531 188.589844 374.820312 191.511719 371.65625 194.429688 L 369.644531 196.304688 C 366.957031 198.828125 364.273438 201.351562 361.585938 203.875 L 360.015625 205.386719 C 356.914062 208.347656 353.855469 211.429688 350.8125 214.367188 L 349.121094 216.058594 C 346.542969 218.617188 344.007812 221.175781 341.46875 223.773438 L 339.457031 225.785156 C 336.476562 228.847656 333.527344 231.929688 330.613281 235.03125 L 329.445312 236.277344 C 326.890625 239.019531 324.332031 241.757812 321.8125 244.535156 L 319.800781 246.832031 C 316.941406 249.992188 314.082031 253.175781 311.140625 256.519531 C 308.199219 259.863281 305.621094 262.820312 302.902344 266.023438 L 300.890625 268.480469 C 298.433594 271.378906 295.976562 274.28125 293.558594 277.222656 L 292.613281 278.347656 C 289.929688 281.609375 287.242188 284.886719 284.558594 288.175781 L 282.542969 290.671875 C 280.367188 293.359375 278.199219 296.117188 276.039062 298.949219 L 274.449219 300.964844 L 274.289062 301.144531 C 221.503906 299.695312 179.777344 305.796875 147.070312 319.671875 C 103.792969 338.019531 76.246094 370.019531 65.1875 414.746094 C 65.0625 415.238281 64.953125 415.730469 64.859375 416.230469 C 64.765625 416.726562 64.683594 417.226562 64.621094 417.730469 C 64.554688 418.230469 64.507812 418.734375 64.472656 419.242188 C 64.4375 419.746094 64.417969 420.253906 64.414062 420.757812 C 64.414062 421.265625 64.421875 421.769531 64.449219 422.277344 C 64.476562 422.78125 64.519531 423.285156 64.578125 423.789062 C 64.632812 424.292969 64.707031 424.792969 64.792969 425.292969 C 64.882812 425.792969 64.984375 426.289062 65.101562 426.78125 C 65.21875 427.273438 65.351562 427.761719 65.496094 428.246094 C 65.644531 428.730469 65.804688 429.210938 65.980469 429.6875 C 66.15625 430.160156 66.347656 430.628906 66.550781 431.09375 C 66.753906 431.558594 66.972656 432.015625 67.203125 432.464844 C 67.4375 432.914062 67.683594 433.359375 67.941406 433.792969 C 68.199219 434.230469 68.46875 434.65625 68.753906 435.074219 C 69.039062 435.496094 69.335938 435.90625 69.644531 436.304688 C 69.953125 436.707031 70.273438 437.097656 70.605469 437.480469 C 70.9375 437.863281 71.28125 438.234375 71.636719 438.597656 C 71.992188 438.957031 72.355469 439.308594 72.734375 439.648438 C 73.109375 439.988281 73.496094 440.3125 73.890625 440.628906 C 74.285156 440.945312 74.691406 441.25 75.105469 441.542969 C 75.519531 441.832031 75.941406 442.113281 76.375 442.378906 C 76.804688 442.644531 77.242188 442.898438 77.6875 443.136719 C 78.136719 443.375 78.589844 443.601562 79.046875 443.8125 C 79.507812 444.027344 79.972656 444.226562 80.445312 444.410156 C 80.917969 444.59375 81.394531 444.761719 81.875 444.917969 C 82.359375 445.074219 82.84375 445.214844 83.335938 445.339844 C 83.824219 445.46875 84.320312 445.578125 84.816406 445.675781 C 85.3125 445.769531 85.8125 445.851562 86.316406 445.917969 C 86.816406 445.984375 87.320312 446.035156 87.824219 446.070312 C 88.332031 446.105469 88.835938 446.128906 89.34375 446.132812 C 89.851562 446.136719 90.355469 446.128906 90.863281 446.101562 C 91.367188 446.078125 91.871094 446.039062 92.375 445.980469 C 122.578125 442.484375 152.847656 441.773438 183.179688 443.847656 L 181.347656 447.351562 L 180.039062 450.007812 C 178.023438 453.816406 176.011719 457.640625 174.179688 461.46875 C 173.3125 463.183594 172.648438 464.972656 172.195312 466.835938 C 171.738281 468.703125 171.496094 470.59375 171.476562 472.515625 C 171.453125 474.433594 171.648438 476.332031 172.058594 478.207031 C 172.472656 480.082031 173.089844 481.886719 173.917969 483.621094 L 174.640625 485.109375 L 141.191406 504.382812 C 140.027344 505.058594 138.925781 505.824219 137.882812 506.675781 C 136.839844 507.53125 135.875 508.460938 134.980469 509.46875 C 134.089844 510.476562 133.28125 511.546875 132.5625 512.683594 C 131.839844 513.820312 131.214844 515.007812 130.683594 516.246094 C 130.152344 517.484375 129.726562 518.753906 129.398438 520.058594 C 129.070312 521.367188 128.851562 522.691406 128.734375 524.03125 C 128.621094 525.371094 128.613281 526.714844 128.710938 528.054688 C 128.8125 529.398438 129.019531 530.726562 129.328125 532.035156 C 133.085938 548.003906 138.316406 563.476562 145.019531 578.453125 C 143.648438 578.253906 142.277344 578.070312 140.988281 577.929688 C 114.589844 575.128906 48.351562 578.050781 3.664062 665.371094 C 3.265625 666.148438 2.90625 666.945312 2.585938 667.761719 C 2.269531 668.574219 1.992188 669.40625 1.761719 670.25 C 1.53125 671.09375 1.34375 671.945312 1.203125 672.808594 C 1.058594 673.671875 0.960938 674.539062 0.910156 675.414062 C 0.859375 676.289062 0.851562 677.160156 0.890625 678.035156 C 0.929688 678.910156 1.015625 679.777344 1.144531 680.644531 C 1.277344 681.507812 1.449219 682.367188 1.671875 683.210938 C 1.890625 684.058594 2.152344 684.894531 2.460938 685.710938 C 2.765625 686.53125 3.113281 687.332031 3.503906 688.117188 C 3.894531 688.898438 4.324219 689.660156 4.792969 690.398438 C 5.261719 691.136719 5.769531 691.847656 6.3125 692.535156 C 6.855469 693.21875 7.433594 693.875 8.046875 694.5 C 8.660156 695.125 9.300781 695.71875 9.976562 696.273438 C 10.648438 696.832031 11.351562 697.355469 12.078125 697.839844 C 12.808594 698.324219 13.558594 698.769531 14.332031 699.175781 C 15.109375 699.582031 15.902344 699.949219 16.714844 700.273438 C 8.539062 723.128906 3.707031 750.253906 1.832031 783 C 1.785156 783.855469 1.777344 784.707031 1.816406 785.5625 C 1.855469 786.414062 1.9375 787.265625 2.0625 788.109375 C 2.1875 788.957031 2.355469 789.792969 2.566406 790.621094 C 2.777344 791.449219 3.027344 792.265625 3.320312 793.070312 C 3.613281 793.871094 3.945312 794.65625 4.320312 795.425781 C 4.695312 796.195312 5.105469 796.945312 5.554688 797.671875 C 6.003906 798.398438 6.488281 799.101562 7.011719 799.777344 C 7.53125 800.453125 8.085938 801.105469 8.671875 801.726562 C 9.261719 802.347656 9.878906 802.9375 10.523438 803.496094 C 11.171875 804.050781 11.847656 804.578125 12.546875 805.066406 C 13.246094 805.554688 13.972656 806.007812 14.71875 806.425781 C 15.464844 806.839844 16.230469 807.214844 17.015625 807.554688 C 17.800781 807.890625 18.601562 808.1875 19.417969 808.445312 C 20.234375 808.703125 21.058594 808.917969 21.894531 809.089844 C 22.734375 809.261719 23.578125 809.390625 24.429688 809.476562 C 25.277344 809.5625 26.132812 809.605469 26.984375 809.605469 L 28.253906 809.605469 C 41.734375 808.894531 55.082031 807.144531 68.289062 804.347656 C 81.496094 801.550781 94.40625 797.746094 107.015625 792.929688 C 107.339844 793.757812 107.707031 794.570312 108.117188 795.363281 C 108.527344 796.152344 108.980469 796.921875 109.472656 797.664062 C 109.960938 798.40625 110.492188 799.121094 111.058594 799.808594 C 111.628906 800.496094 112.230469 801.152344 112.867188 801.777344 C 113.503906 802.398438 114.171875 802.988281 114.871094 803.539062 C 115.570312 804.089844 116.296875 804.605469 117.050781 805.082031 C 117.808594 805.554688 118.582031 805.988281 119.382812 806.382812 C 120.183594 806.773438 121.003906 807.125 121.839844 807.429688 C 122.675781 807.734375 123.527344 807.996094 124.394531 808.210938 C 125.257812 808.425781 126.132812 808.597656 127.015625 808.71875 C 127.898438 808.84375 128.785156 808.917969 129.675781 808.945312 C 130.566406 808.976562 131.457031 808.957031 132.34375 808.890625 C 133.234375 808.824219 134.117188 808.710938 134.992188 808.550781 C 135.871094 808.394531 136.738281 808.1875 137.59375 807.9375 C 138.449219 807.683594 139.285156 807.386719 140.109375 807.046875 C 140.933594 806.707031 141.738281 806.324219 142.519531 805.898438 C 223.214844 761.957031 231.414062 704.339844 228.511719 672.359375 C 246.957031 683.246094 266.460938 691.695312 287.015625 697.714844 C 288.382812 698.121094 289.777344 698.40625 291.195312 698.574219 C 292.613281 698.742188 294.035156 698.789062 295.464844 698.710938 C 296.890625 698.636719 298.300781 698.445312 299.691406 698.128906 C 301.085938 697.8125 302.441406 697.382812 303.761719 696.839844 C 305.082031 696.292969 306.34375 695.640625 307.554688 694.878906 C 308.761719 694.117188 309.898438 693.257812 310.960938 692.304688 C 312.023438 691.351562 312.996094 690.3125 313.882812 689.191406 C 314.769531 688.070312 315.550781 686.886719 316.234375 685.632812 L 336.03125 649.886719 L 339.636719 651.777344 C 341.554688 652.769531 343.5625 653.503906 345.667969 653.976562 C 347.773438 654.453125 349.902344 654.65625 352.058594 654.582031 C 354.214844 654.511719 356.328125 654.167969 358.394531 653.550781 C 360.464844 652.9375 362.421875 652.070312 364.265625 650.953125 L 364.730469 650.671875 C 367.773438 680.167969 368.203125 709.707031 366.019531 739.28125 C 365.960938 740.136719 365.945312 740.996094 365.972656 741.859375 C 366 742.71875 366.074219 743.574219 366.191406 744.425781 C 366.308594 745.28125 366.46875 746.125 366.671875 746.960938 C 366.875 747.796875 367.121094 748.621094 367.410156 749.433594 C 367.695312 750.242188 368.023438 751.039062 368.394531 751.816406 C 368.765625 752.59375 369.171875 753.347656 369.617188 754.082031 C 370.066406 754.820312 370.550781 755.53125 371.070312 756.214844 C 371.589844 756.902344 372.140625 757.558594 372.730469 758.1875 C 373.316406 758.816406 373.933594 759.414062 374.582031 759.980469 C 375.230469 760.546875 375.90625 761.078125 376.609375 761.574219 C 377.3125 762.070312 378.039062 762.53125 378.789062 762.953125 C 379.539062 763.375 380.308594 763.757812 381.097656 764.097656 C 381.886719 764.441406 382.691406 764.746094 383.511719 765.003906 C 384.332031 765.265625 385.164062 765.484375 386.007812 765.65625 C 386.851562 765.832031 387.699219 765.964844 388.554688 766.054688 C 389.414062 766.140625 390.269531 766.183594 391.132812 766.183594 C 393.519531 766.179688 395.863281 765.84375 398.160156 765.179688 C 441.921875 752.449219 472.570312 724.117188 489.285156 680.957031 C 501.914062 648.355469 506.566406 607.351562 503.382812 555.917969 L 505.820312 554.023438 L 506.082031 553.824219 C 514.640625 547.136719 523.140625 540.3125 531.335938 533.542969 L 532.382812 532.679688 C 539.191406 527.058594 545.753906 521.5 551.878906 516.207031 L 555.058594 513.425781 L 557.394531 511.414062 C 561.179688 508.089844 564.925781 504.746094 568.59375 501.34375 L 569.679688 500.335938 C 573.171875 497.195312 576.613281 494.03125 580.011719 490.851562 L 581.160156 489.804688 C 584.691406 486.5 588.171875 483.191406 591.609375 479.875 L 593.421875 478.125 C 596.746094 474.902344 600.046875 471.699219 603.492188 468.355469 L 603.855469 467.972656 C 607.175781 464.671875 610.460938 461.328125 613.742188 457.902344 L 615.757812 455.769531 C 618.957031 452.445312 622.160156 449.125 625.300781 445.699219 L 626.046875 444.914062 C 628.960938 441.800781 631.847656 438.664062 634.707031 435.511719 L 636.722656 433.214844 C 639.703125 429.910156 642.636719 426.609375 645.519531 423.304688 L 647.234375 421.292969 C 649.769531 418.378906 652.269531 415.457031 654.726562 412.53125 L 656.558594 410.378906 C 659.335938 407.046875 662.074219 403.691406 664.773438 400.308594 L 666.789062 397.769531 C 669.203125 394.75 671.585938 391.730469 673.9375 388.707031 L 675.183594 387.117188 C 677.785156 383.753906 680.359375 380.351562 682.898438 377.046875 L 684.914062 374.226562 C 687.429688 370.804688 689.945312 367.382812 692.445312 363.878906 L 693.289062 362.667969 C 695.519531 359.5 697.726562 356.332031 699.914062 353.164062 L 701.929688 350.324219 C 704.265625 346.886719 706.5625 343.4375 708.816406 339.972656 L 710.289062 337.675781 C 712.21875 334.667969 714.125 331.675781 716.007812 328.695312 L 717.636719 326.078125 C 719.792969 322.574219 721.90625 319.089844 723.980469 315.566406 L 725.792969 313.066406 C 727.625 309.925781 729.4375 306.785156 731.191406 303.664062 L 732.296875 301.648438 C 734.300781 298.0625 736.257812 294.460938 738.179688 290.835938 L 739.730469 287.894531 C 741.742188 284.230469 743.554688 280.542969 745.410156 276.878906 L 745.871094 275.933594 C 747.605469 272.429688 749.308594 268.910156 750.988281 265.378906 L 752.355469 262.480469 C 754.089844 258.800781 755.78125 255.082031 757.429688 251.324219 L 758.335938 249.308594 C 759.789062 245.984375 761.199219 242.644531 762.585938 239.238281 L 763.675781 236.660156 C 765.21875 232.875 766.722656 229.089844 768.183594 225.304688 L 769.191406 222.707031 C 770.5 219.242188 771.789062 215.777344 773.019531 212.3125 L 773.683594 210.5 C 775.027344 206.621094 776.367188 202.707031 777.710938 198.761719 L 778.597656 196.023438 C 780.085938 191.449219 781.296875 187.625 782.363281 184.058594 L 783.511719 180.152344 L 783.671875 179.589844 C 790.898438 154.652344 796.367188 129.335938 800.078125 103.640625 C 803.789062 77.945312 805.703125 52.117188 805.824219 26.152344 C 805.824219 24.351562 805.636719 22.570312 805.253906 20.8125 C 804.875 19.050781 804.3125 17.351562 803.566406 15.710938 C 802.820312 14.070312 801.910156 12.527344 800.835938 11.085938 C 799.757812 9.640625 798.542969 8.324219 797.183594 7.140625 Z M 797.183594 7.140625 " fill-opacity="1" fill-rule="nonzero"/><path fill="#f6f5f9" d="M 780.609375 26.09375 C 780.511719 50.886719 778.691406 75.554688 775.148438 100.097656 C 771.601562 124.636719 766.367188 148.8125 759.445312 172.621094 C 759.042969 174.011719 758.640625 175.421875 758.21875 176.808594 C 705.152344 353.789062 560.273438 502.710938 351.214844 629.503906 C 342.558594 625.007812 334.265625 620.347656 326.34375 615.527344 C 271.40625 582.117188 233.988281 541.015625 207.972656 494.839844 C 203.941406 487.609375 200.097656 480.257812 196.550781 472.804688 C 289.734375 287.691406 436.664062 133.109375 636.722656 61.4375 C 638.917969 60.628906 641.109375 59.867188 643.304688 59.101562 C 688 43.625 733.765625 32.621094 780.609375 26.09375 Z M 780.609375 26.09375 " fill-opacity="1" fill-rule="nonzero"/><path fill="#ff66c4" d="M 326.34375 615.527344 L 294.222656 673.546875 C 219.871094 651.253906 172.203125 603.0625 153.859375 526.214844 L 208.011719 494.839844 C 233.988281 540.996094 271.40625 582.117188 326.34375 615.527344 Z M 326.34375 615.527344 " fill-opacity="1" fill-rule="nonzero"/><path fill="#ff66c4" d="M 237.011719 427.011719 C 194.839844 416.195312 145.058594 414.929688 89.71875 420.96875 C 109.855469 339.792969 191.558594 320.035156 301.171875 327.871094 Z M 237.011719 427.011719 " fill-opacity="1" fill-rule="nonzero"/><path fill="#ff66c4" d="M 379.046875 594.121094 C 391.574219 635.808594 394.777344 685.488281 391.132812 741.03125 C 471.421875 717.691406 487.796875 635.164062 475.570312 526.03125 Z M 379.046875 594.121094 " fill-opacity="1" fill-rule="nonzero"/><path fill="#f6f5f9" d="M 651.105469 165.179688 C 652.050781 166.007812 652.96875 166.863281 653.859375 167.75 C 654.75 168.636719 655.609375 169.550781 656.445312 170.492188 C 657.28125 171.433594 658.089844 172.402344 658.867188 173.398438 C 659.644531 174.390625 660.394531 175.414062 661.113281 176.460938 C 661.832031 177.507812 662.523438 178.578125 663.179688 179.671875 C 663.839844 180.765625 664.46875 181.886719 665.0625 183.027344 C 665.660156 184.167969 666.222656 185.332031 666.757812 186.515625 C 667.289062 187.699219 667.789062 188.902344 668.257812 190.128906 C 668.726562 191.355469 669.160156 192.597656 669.5625 193.859375 C 669.964844 195.121094 670.332031 196.402344 670.667969 197.699219 C 671 198.996094 671.300781 200.308594 671.566406 201.636719 C 671.835938 202.964844 672.066406 204.304688 672.265625 205.664062 C 672.464844 207.019531 672.628906 208.386719 672.757812 209.769531 C 672.886719 211.148438 672.980469 212.539062 673.039062 213.945312 C 673.101562 215.347656 673.125 216.757812 673.117188 218.179688 C 673.105469 219.597656 673.0625 221.027344 672.984375 222.460938 C 672.902344 223.898438 672.789062 225.339844 672.640625 226.785156 C 672.492188 228.234375 672.3125 229.683594 672.09375 231.136719 C 671.875 232.59375 671.625 234.046875 671.339844 235.507812 C 671.054688 236.964844 670.734375 238.425781 670.382812 239.886719 C 670.027344 241.34375 669.640625 242.800781 669.222656 244.257812 C 668.800781 245.714844 668.351562 247.167969 667.863281 248.621094 C 667.378906 250.070312 666.859375 251.515625 666.308594 252.957031 C 665.757812 254.398438 665.175781 255.832031 664.5625 257.257812 C 663.949219 258.6875 663.304688 260.105469 662.628906 261.515625 C 661.953125 262.925781 661.25 264.328125 660.511719 265.71875 C 659.777344 267.109375 659.011719 268.488281 658.21875 269.855469 C 657.421875 271.222656 656.601562 272.578125 655.75 273.917969 C 654.898438 275.257812 654.023438 276.582031 653.117188 277.894531 C 652.210938 279.203125 651.28125 280.5 650.324219 281.777344 C 649.363281 283.054688 648.382812 284.3125 647.375 285.554688 C 646.367188 286.796875 645.335938 288.019531 644.28125 289.21875 C 643.226562 290.421875 642.148438 291.601562 641.046875 292.761719 C 639.949219 293.921875 638.828125 295.0625 637.683594 296.175781 C 636.542969 297.292969 635.378906 298.382812 634.199219 299.449219 C 633.015625 300.519531 631.816406 301.5625 630.597656 302.578125 C 629.378906 303.597656 628.144531 304.585938 626.890625 305.550781 C 625.636719 306.519531 624.371094 307.457031 623.085938 308.367188 C 621.804688 309.277344 620.503906 310.15625 619.195312 311.011719 C 617.882812 311.863281 616.558594 312.6875 615.222656 313.480469 C 613.886719 314.273438 612.542969 315.039062 611.183594 315.769531 C 609.828125 316.503906 608.460938 317.203125 607.085938 317.875 C 605.710938 318.542969 604.328125 319.183594 602.9375 319.789062 C 601.550781 320.394531 600.152344 320.964844 598.753906 321.503906 C 597.351562 322.046875 595.945312 322.550781 594.535156 323.023438 C 593.128906 323.496094 591.714844 323.933594 590.300781 324.339844 C 588.886719 324.742188 587.472656 325.113281 586.058594 325.445312 C 584.644531 325.78125 583.230469 326.082031 581.816406 326.347656 C 580.402344 326.609375 578.992188 326.839844 577.585938 327.035156 C 576.175781 327.226562 574.773438 327.386719 573.375 327.507812 C 571.976562 327.632812 570.585938 327.71875 569.199219 327.769531 C 567.8125 327.820312 566.433594 327.835938 565.0625 327.816406 C 563.695312 327.796875 562.332031 327.738281 560.980469 327.648438 C 559.628906 327.554688 558.289062 327.425781 556.960938 327.265625 C 555.628906 327.101562 554.3125 326.902344 553.011719 326.667969 C 551.707031 326.433594 550.417969 326.164062 549.140625 325.859375 C 547.867188 325.554688 546.605469 325.214844 545.363281 324.839844 C 544.121094 324.464844 542.894531 324.058594 541.683594 323.613281 C 540.476562 323.171875 539.285156 322.691406 538.113281 322.183594 C 536.941406 321.671875 535.792969 321.128906 534.660156 320.550781 C 533.53125 319.972656 532.421875 319.363281 531.332031 318.71875 C 530.246094 318.078125 529.179688 317.402344 528.136719 316.699219 C 527.09375 315.992188 526.078125 315.253906 525.082031 314.488281 C 524.089844 313.71875 523.121094 312.921875 522.175781 312.09375 C 521.234375 311.265625 520.316406 310.410156 519.425781 309.523438 C 518.535156 308.636719 517.671875 307.722656 516.835938 306.78125 C 516.003906 305.839844 515.195312 304.871094 514.417969 303.875 C 513.640625 302.878906 512.890625 301.859375 512.171875 300.8125 C 511.453125 299.765625 510.761719 298.695312 510.105469 297.601562 C 509.445312 296.503906 508.816406 295.386719 508.222656 294.246094 C 507.625 293.105469 507.058594 291.941406 506.527344 290.757812 C 505.996094 289.574219 505.496094 288.367188 505.027344 287.144531 C 504.558594 285.917969 504.125 284.675781 503.722656 283.414062 C 503.320312 282.152344 502.953125 280.871094 502.617188 279.574219 C 502.285156 278.277344 501.984375 276.964844 501.714844 275.636719 C 501.449219 274.308594 501.21875 272.964844 501.019531 271.609375 C 500.820312 270.253906 500.65625 268.886719 500.527344 267.503906 C 500.398438 266.125 500.304688 264.730469 500.242188 263.328125 C 500.183594 261.925781 500.160156 260.515625 500.167969 259.09375 C 500.179688 257.671875 500.222656 256.246094 500.300781 254.808594 C 500.378906 253.375 500.492188 251.933594 500.640625 250.488281 C 500.789062 249.039062 500.972656 247.589844 501.191406 246.136719 C 501.40625 244.679688 501.660156 243.222656 501.945312 241.765625 C 502.230469 240.304688 502.550781 238.847656 502.902344 237.386719 C 503.253906 235.929688 503.640625 234.46875 504.0625 233.011719 C 504.480469 231.558594 504.933594 230.101562 505.421875 228.652344 C 505.90625 227.203125 506.425781 225.757812 506.972656 224.316406 C 507.523438 222.875 508.105469 221.441406 508.722656 220.011719 C 509.335938 218.585938 509.980469 217.167969 510.65625 215.757812 C 511.332031 214.34375 512.035156 212.945312 512.773438 211.554688 C 513.507812 210.164062 514.273438 208.785156 515.066406 207.417969 C 515.859375 206.050781 516.683594 204.695312 517.535156 203.355469 C 518.382812 202.015625 519.261719 200.6875 520.167969 199.378906 C 521.074219 198.066406 522.003906 196.773438 522.960938 195.496094 C 523.917969 194.21875 524.902344 192.960938 525.910156 191.71875 C 526.917969 190.476562 527.949219 189.253906 529.003906 188.050781 C 530.058594 186.851562 531.136719 185.667969 532.234375 184.507812 C 533.335938 183.347656 534.457031 182.210938 535.597656 181.097656 C 536.742188 179.980469 537.902344 178.890625 539.085938 177.820312 C 540.269531 176.753906 541.46875 175.710938 542.6875 174.695312 C 543.90625 173.675781 545.140625 172.683594 546.394531 171.71875 C 547.648438 170.753906 548.914062 169.816406 550.199219 168.90625 C 551.480469 167.996094 552.777344 167.117188 554.089844 166.261719 C 555.402344 165.410156 556.722656 164.585938 558.058594 163.792969 C 559.394531 163 560.742188 162.234375 562.097656 161.503906 C 563.457031 160.769531 564.824219 160.066406 566.199219 159.398438 C 567.574219 158.726562 568.957031 158.089844 570.34375 157.484375 C 571.734375 156.878906 573.128906 156.308594 574.53125 155.765625 C 575.933594 155.226562 577.339844 154.722656 578.746094 154.25 C 580.15625 153.777344 581.570312 153.339844 582.984375 152.933594 C 584.398438 152.53125 585.8125 152.160156 587.226562 151.824219 C 588.640625 151.492188 590.054688 151.191406 591.46875 150.925781 C 592.882812 150.660156 594.292969 150.433594 595.699219 150.238281 C 597.105469 150.042969 598.511719 149.886719 599.910156 149.761719 C 601.308594 149.640625 602.699219 149.554688 604.085938 149.503906 C 605.472656 149.453125 606.851562 149.4375 608.21875 149.457031 C 609.589844 149.476562 610.953125 149.53125 612.304688 149.625 C 613.65625 149.71875 614.996094 149.84375 616.324219 150.007812 C 617.652344 150.171875 618.96875 150.371094 620.273438 150.605469 C 621.578125 150.839844 622.867188 151.109375 624.140625 151.414062 C 625.417969 151.71875 626.675781 152.058594 627.921875 152.433594 C 629.164062 152.808594 630.390625 153.214844 631.601562 153.660156 C 632.808594 154.101562 634 154.578125 635.171875 155.089844 C 636.339844 155.601562 637.492188 156.144531 638.625 156.722656 C 639.753906 157.300781 640.863281 157.910156 641.953125 158.550781 C 643.039062 159.195312 644.105469 159.871094 645.148438 160.574219 C 646.1875 161.28125 647.207031 162.019531 648.203125 162.785156 C 649.195312 163.554688 650.164062 164.351562 651.105469 165.179688 Z M 651.105469 165.179688 " fill-opacity="1" fill-rule="nonzero"/><path fill="#cb6ce6" d="M 637 181.253906 C 637.714844 181.878906 638.40625 182.527344 639.078125 183.199219 C 639.75 183.871094 640.402344 184.566406 641.03125 185.28125 C 641.660156 185.996094 642.265625 186.730469 642.851562 187.488281 C 643.4375 188.246094 644 189.023438 644.535156 189.820312 C 645.074219 190.617188 645.589844 191.433594 646.082031 192.269531 C 646.574219 193.105469 647.042969 193.957031 647.484375 194.832031 C 647.929688 195.703125 648.347656 196.589844 648.742188 197.496094 C 649.136719 198.402344 649.503906 199.324219 649.847656 200.261719 C 650.191406 201.199219 650.511719 202.152344 650.804688 203.121094 C 651.097656 204.089844 651.363281 205.070312 651.601562 206.0625 C 651.84375 207.058594 652.058594 208.066406 652.246094 209.085938 C 652.433594 210.105469 652.597656 211.136719 652.730469 212.179688 C 652.867188 213.222656 652.976562 214.273438 653.058594 215.335938 C 653.140625 216.398438 653.195312 217.46875 653.222656 218.550781 C 653.253906 219.628906 653.253906 220.714844 653.230469 221.8125 C 653.207031 222.90625 653.152344 224.007812 653.074219 225.113281 C 652.996094 226.21875 652.890625 227.332031 652.761719 228.445312 C 652.628906 229.5625 652.472656 230.683594 652.285156 231.804688 C 652.101562 232.929688 651.890625 234.054688 651.652344 235.183594 C 651.417969 236.308594 651.15625 237.4375 650.867188 238.566406 C 650.578125 239.695312 650.261719 240.824219 649.921875 241.949219 C 649.582031 243.078125 649.214844 244.203125 648.824219 245.324219 C 648.433594 246.449219 648.019531 247.570312 647.582031 248.6875 C 647.140625 249.800781 646.675781 250.914062 646.1875 252.023438 C 645.699219 253.128906 645.1875 254.230469 644.652344 255.324219 C 644.117188 256.421875 643.558594 257.507812 642.976562 258.589844 C 642.394531 259.667969 641.789062 260.742188 641.164062 261.804688 C 640.539062 262.867188 639.890625 263.921875 639.222656 264.964844 C 638.550781 266.007812 637.863281 267.039062 637.152344 268.058594 C 636.441406 269.078125 635.710938 270.089844 634.960938 271.085938 C 634.210938 272.082031 633.441406 273.0625 632.652344 274.03125 C 631.863281 275 631.058594 275.953125 630.234375 276.894531 C 629.410156 277.832031 628.570312 278.753906 627.710938 279.664062 C 626.851562 280.570312 625.980469 281.460938 625.089844 282.332031 C 624.199219 283.207031 623.292969 284.0625 622.375 284.898438 C 621.453125 285.734375 620.519531 286.554688 619.574219 287.351562 C 618.625 288.152344 617.664062 288.929688 616.691406 289.6875 C 615.71875 290.449219 614.734375 291.1875 613.738281 291.902344 C 612.742188 292.621094 611.738281 293.316406 610.722656 293.988281 C 609.703125 294.660156 608.679688 295.3125 607.644531 295.941406 C 606.609375 296.566406 605.570312 297.171875 604.519531 297.753906 C 603.46875 298.335938 602.410156 298.890625 601.347656 299.425781 C 600.285156 299.957031 599.21875 300.464844 598.144531 300.949219 C 597.070312 301.433594 595.992188 301.890625 594.910156 302.324219 C 593.828125 302.757812 592.746094 303.164062 591.65625 303.546875 C 590.570312 303.929688 589.484375 304.28125 588.394531 304.613281 C 587.304688 304.941406 586.214844 305.242188 585.125 305.519531 C 584.035156 305.792969 582.945312 306.042969 581.859375 306.261719 C 580.769531 306.484375 579.6875 306.679688 578.605469 306.84375 C 577.523438 307.011719 576.445312 307.152344 575.371094 307.261719 C 574.296875 307.375 573.226562 307.457031 572.164062 307.515625 C 571.097656 307.570312 570.039062 307.601562 568.988281 307.601562 C 567.9375 307.601562 566.894531 307.578125 565.859375 307.523438 C 564.824219 307.46875 563.796875 307.386719 562.78125 307.277344 C 561.761719 307.167969 560.753906 307.03125 559.757812 306.867188 C 558.761719 306.703125 557.773438 306.507812 556.800781 306.289062 C 555.824219 306.070312 554.863281 305.824219 553.914062 305.550781 C 552.964844 305.277344 552.027344 304.980469 551.105469 304.652344 C 550.183594 304.324219 549.277344 303.972656 548.386719 303.59375 C 547.492188 303.214844 546.617188 302.808594 545.757812 302.378906 C 544.894531 301.949219 544.050781 301.492188 543.226562 301.011719 C 542.398438 300.527344 541.589844 300.023438 540.800781 299.492188 C 540.007812 298.960938 539.238281 298.40625 538.484375 297.824219 C 537.730469 297.246094 536.996094 296.644531 536.285156 296.019531 C 535.570312 295.390625 534.878906 294.742188 534.207031 294.070312 C 533.535156 293.402344 532.882812 292.707031 532.253906 291.992188 C 531.625 291.277344 531.019531 290.539062 530.433594 289.785156 C 529.847656 289.027344 529.285156 288.25 528.746094 287.453125 C 528.207031 286.65625 527.691406 285.839844 527.199219 285.003906 C 526.710938 284.167969 526.242188 283.3125 525.796875 282.441406 C 525.355469 281.570312 524.9375 280.679688 524.542969 279.777344 C 524.148438 278.871094 523.777344 277.949219 523.433594 277.011719 C 523.089844 276.070312 522.773438 275.121094 522.480469 274.152344 C 522.1875 273.183594 521.921875 272.203125 521.679688 271.207031 C 521.441406 270.214844 521.226562 269.207031 521.039062 268.1875 C 520.847656 267.167969 520.6875 266.136719 520.550781 265.09375 C 520.417969 264.050781 520.308594 263 520.226562 261.9375 C 520.144531 260.875 520.089844 259.804688 520.058594 258.722656 C 520.03125 257.644531 520.03125 256.554688 520.054688 255.460938 C 520.078125 254.367188 520.128906 253.265625 520.210938 252.160156 C 520.289062 251.054688 520.390625 249.941406 520.523438 248.824219 C 520.65625 247.707031 520.8125 246.589844 520.996094 245.464844 C 521.183594 244.34375 521.394531 243.21875 521.628906 242.089844 C 521.867188 240.964844 522.128906 239.835938 522.417969 238.707031 C 522.707031 237.578125 523.023438 236.449219 523.363281 235.324219 C 523.703125 234.195312 524.066406 233.070312 524.457031 231.945312 C 524.847656 230.824219 525.265625 229.703125 525.703125 228.585938 C 526.144531 227.46875 526.609375 226.359375 527.097656 225.25 C 527.585938 224.144531 528.097656 223.042969 528.632812 221.949219 C 529.167969 220.851562 529.726562 219.765625 530.308594 218.683594 C 530.890625 217.605469 531.492188 216.53125 532.121094 215.46875 C 532.746094 214.40625 533.394531 213.351562 534.0625 212.308594 C 534.730469 211.265625 535.421875 210.234375 536.132812 209.214844 C 536.84375 208.191406 537.574219 207.183594 538.324219 206.1875 C 539.074219 205.191406 539.84375 204.210938 540.632812 203.242188 C 541.417969 202.273438 542.226562 201.320312 543.050781 200.378906 C 543.875 199.441406 544.714844 198.515625 545.574219 197.609375 C 546.429688 196.703125 547.304688 195.8125 548.195312 194.9375 C 549.085938 194.066406 549.992188 193.210938 550.910156 192.375 C 551.832031 191.535156 552.765625 190.71875 553.710938 189.921875 C 554.660156 189.121094 555.617188 188.34375 556.59375 187.582031 C 557.566406 186.824219 558.550781 186.085938 559.542969 185.371094 C 560.539062 184.652344 561.546875 183.957031 562.5625 183.285156 C 563.578125 182.609375 564.605469 181.960938 565.640625 181.332031 C 566.671875 180.703125 567.714844 180.101562 568.765625 179.519531 C 569.816406 178.9375 570.871094 178.378906 571.933594 177.847656 C 573 177.3125 574.066406 176.804688 575.140625 176.324219 C 576.214844 175.839844 577.292969 175.378906 578.375 174.949219 C 579.457031 174.515625 580.539062 174.105469 581.625 173.726562 C 582.714844 173.34375 583.800781 172.988281 584.890625 172.660156 C 585.980469 172.332031 587.070312 172.03125 588.160156 171.753906 C 589.25 171.480469 590.339844 171.230469 591.425781 171.007812 C 592.511719 170.789062 593.597656 170.59375 594.679688 170.425781 C 595.761719 170.261719 596.839844 170.121094 597.914062 170.007812 C 598.988281 169.898438 600.058594 169.8125 601.121094 169.757812 C 602.1875 169.699219 603.242188 169.671875 604.292969 169.671875 C 605.34375 169.667969 606.390625 169.695312 607.425781 169.75 C 608.460938 169.804688 609.488281 169.886719 610.503906 169.996094 C 611.523438 170.105469 612.53125 170.242188 613.527344 170.40625 C 614.523438 170.570312 615.511719 170.761719 616.484375 170.980469 C 617.460938 171.203125 618.421875 171.449219 619.371094 171.71875 C 620.320312 171.992188 621.253906 172.292969 622.175781 172.621094 C 623.097656 172.945312 624.007812 173.300781 624.898438 173.679688 C 625.792969 174.058594 626.667969 174.460938 627.527344 174.894531 C 628.386719 175.324219 629.230469 175.78125 630.058594 176.261719 C 630.886719 176.742188 631.695312 177.25 632.484375 177.78125 C 633.277344 178.3125 634.046875 178.867188 634.800781 179.445312 C 635.554688 180.027344 636.285156 180.628906 637 181.253906 Z M 637 181.253906 " fill-opacity="1" fill-rule="nonzero"/><path fill="#ff66c4" d="M 382.753906 427.011719 L 296.519531 508.671875 C 293.398438 521.523438 288.625 541.238281 283.550781 562.101562 C 347.851562 526.796875 389.679688 484.507812 382.753906 427.011719 Z M 382.753906 427.011719 " fill-opacity="1" fill-rule="nonzero"/><path fill="#f8c740" d="M 130.457031 783.746094 L 132.472656 753.539062 C 99.304688 771.664062 64.28125 782.578125 27.046875 784.449219 C 29.402344 743.265625 36.832031 705.910156 56.1875 677.3125 L 25.980469 676.890625 C 58.363281 613.59375 104.054688 599.378906 138.230469 603.0625 C 157.484375 605.078125 173.089844 612.808594 180.621094 620.601562 C 189.523438 629.808594 200.601562 649.160156 203.238281 672.761719 C 207.023438 706.675781 193.332031 749.511719 130.457031 783.746094 Z M 130.457031 783.746094 " fill-opacity="1" fill-rule="nonzero"/><path fill="#f8c740" d="M 203.238281 672.703125 C 153.09375 702.75 112.273438 712.597656 100.773438 699.445312 C 89.273438 686.296875 105.144531 646.84375 138.230469 603.003906 C 157.484375 605.015625 173.089844 612.75 180.621094 620.542969 C 189.523438 629.746094 200.601562 649.097656 203.238281 672.703125 Z M 203.238281 672.703125 " fill-opacity="1" fill-rule="nonzero"/><path fill="#ff66c4" d="M 780.609375 26.09375 C 780.511719 50.886719 778.691406 75.554688 775.148438 100.097656 C 771.601562 124.636719 766.367188 148.8125 759.445312 172.621094 C 702.753906 149.804688 665.378906 109.527344 636.722656 61.4375 C 638.917969 60.628906 641.109375 59.867188 643.304688 59.101562 C 688 43.625 733.765625 32.621094 780.609375 26.09375 Z M 780.609375 26.09375 " fill-opacity="1" fill-rule="nonzero"/><path fill="#f6f5f9" d="M 639.703125 217.53125 C 639.703125 218.15625 639.640625 218.777344 639.519531 219.390625 C 639.394531 220.007812 639.214844 220.605469 638.976562 221.183594 C 638.734375 221.761719 638.441406 222.3125 638.09375 222.832031 C 637.746094 223.355469 637.347656 223.835938 636.90625 224.28125 C 636.460938 224.722656 635.980469 225.117188 635.460938 225.46875 C 634.9375 225.816406 634.386719 226.109375 633.808594 226.347656 C 633.230469 226.589844 632.632812 226.769531 632.019531 226.890625 C 631.402344 227.015625 630.78125 227.074219 630.15625 227.074219 C 629.527344 227.074219 628.910156 227.015625 628.292969 226.890625 C 627.679688 226.769531 627.082031 226.589844 626.503906 226.347656 C 625.921875 226.109375 625.375 225.816406 624.851562 225.46875 C 624.332031 225.117188 623.847656 224.722656 623.40625 224.28125 C 622.960938 223.835938 622.566406 223.355469 622.21875 222.832031 C 621.871094 222.3125 621.578125 221.761719 621.335938 221.183594 C 621.097656 220.605469 620.914062 220.007812 620.792969 219.390625 C 620.671875 218.777344 620.609375 218.15625 620.609375 217.53125 C 620.609375 216.902344 620.671875 216.28125 620.792969 215.667969 C 620.914062 215.054688 621.097656 214.457031 621.335938 213.878906 C 621.578125 213.296875 621.871094 212.746094 622.21875 212.226562 C 622.566406 211.707031 622.960938 211.222656 623.40625 210.78125 C 623.847656 210.335938 624.332031 209.941406 624.851562 209.59375 C 625.375 209.246094 625.921875 208.949219 626.503906 208.710938 C 627.082031 208.472656 627.679688 208.289062 628.292969 208.167969 C 628.910156 208.046875 629.527344 207.984375 630.15625 207.984375 C 630.78125 207.984375 631.402344 208.046875 632.019531 208.167969 C 632.632812 208.289062 633.230469 208.472656 633.808594 208.710938 C 634.386719 208.949219 634.9375 209.246094 635.460938 209.59375 C 635.980469 209.941406 636.460938 210.335938 636.90625 210.78125 C 637.347656 211.222656 637.746094 211.707031 638.09375 212.226562 C 638.441406 212.746094 638.734375 213.296875 638.976562 213.878906 C 639.214844 214.457031 639.394531 215.054688 639.519531 215.667969 C 639.640625 216.28125 639.703125 216.902344 639.703125 217.53125 Z M 639.703125 217.53125 " fill-opacity="1" fill-rule="nonzero"/><path fill="#231f20" d="M 654.421875 161.382812 C 637.847656 146.824219 615.152344 141.246094 590.542969 145.957031 C 566.378906 150.488281 543.15625 164.242188 525.214844 184.722656 C 487.835938 227.316406 484.9375 286.140625 518.851562 315.867188 C 522.105469 318.65625 525.585938 321.125 529.292969 323.277344 C 533 325.433594 536.871094 327.230469 540.90625 328.679688 C 544.9375 330.125 549.070312 331.195312 553.300781 331.890625 C 557.53125 332.582031 561.789062 332.886719 566.074219 332.804688 C 594.269531 332.804688 625.0625 318.707031 648.058594 292.527344 C 666.023438 272.066406 676.65625 247.273438 678.003906 222.726562 C 679.476562 197.714844 671.015625 175.925781 654.421875 161.382812 Z M 667.957031 222.160156 C 666.726562 244.476562 656.980469 267.109375 640.507812 285.902344 C 606.773438 324.324219 555.179688 334.375 525.496094 308.316406 C 495.8125 282.253906 499.054688 229.773438 532.765625 191.351562 C 549.257812 172.582031 570.425781 159.972656 592.394531 155.847656 C 597.285156 154.917969 602.21875 154.445312 607.199219 154.4375 C 610.878906 154.355469 614.535156 154.613281 618.171875 155.203125 C 621.804688 155.792969 625.355469 156.707031 628.824219 157.945312 C 632.292969 159.183594 635.617188 160.726562 638.804688 162.574219 C 641.988281 164.421875 644.980469 166.542969 647.777344 168.9375 C 661.996094 181.421875 669.164062 200.292969 667.957031 222.160156 Z M 667.957031 222.160156 " fill-opacity="1" fill-rule="nonzero"/><path fill="#231f20" d="M 640.304688 177.453125 C 627.457031 166.175781 609.734375 162.128906 590.421875 166.054688 C 571.59375 169.902344 553.429688 180.898438 539.25 197.050781 C 525.074219 213.199219 516.535156 232.632812 515.085938 251.804688 C 513.695312 271.460938 519.996094 288.519531 532.867188 299.796875 C 535.335938 301.917969 537.976562 303.792969 540.789062 305.429688 C 543.601562 307.066406 546.539062 308.433594 549.601562 309.53125 C 552.667969 310.628906 555.804688 311.441406 559.015625 311.964844 C 562.226562 312.488281 565.460938 312.714844 568.714844 312.644531 C 573.460938 312.628906 578.160156 312.144531 582.808594 311.195312 C 601.640625 307.347656 619.804688 296.351562 633.980469 280.203125 C 648.160156 264.050781 656.699219 244.617188 658.046875 225.445312 C 659.476562 205.789062 653.175781 188.730469 640.304688 177.453125 Z M 648.039062 224.738281 C 646.851562 241.714844 639.179688 258.976562 626.449219 273.554688 C 613.722656 288.136719 597.53125 297.921875 580.855469 301.328125 C 564.746094 304.609375 550.042969 301.328125 539.59375 292.222656 C 529.140625 283.121094 524.066406 268.964844 525.234375 252.511719 C 526.421875 235.535156 534.09375 218.273438 546.824219 203.695312 C 559.550781 189.113281 575.742188 179.328125 592.417969 175.925781 C 596.402344 175.109375 600.429688 174.691406 604.5 174.675781 C 607.148438 174.609375 609.78125 174.785156 612.394531 175.203125 C 615.011719 175.617188 617.566406 176.269531 620.066406 177.152344 C 622.5625 178.039062 624.957031 179.140625 627.253906 180.464844 C 629.546875 181.789062 631.703125 183.308594 633.71875 185.027344 C 644.113281 194.25 649.265625 208.347656 648.039062 224.738281 Z M 648.039062 224.738281 " fill-opacity="1" fill-rule="nonzero"/><path fill="#231f20" d="M 384.464844 422.277344 C 384.027344 422.121094 383.578125 422.027344 383.113281 421.996094 C 382.648438 421.960938 382.1875 421.996094 381.734375 422.089844 C 381.277344 422.1875 380.84375 422.34375 380.433594 422.558594 C 380.019531 422.777344 379.648438 423.046875 379.308594 423.367188 L 293.054688 505.007812 C 292.34375 505.699219 291.867188 506.523438 291.625 507.484375 L 278.71875 560.914062 C 278.628906 561.28125 278.585938 561.660156 278.582031 562.039062 C 278.578125 562.417969 278.617188 562.796875 278.699219 563.167969 C 278.78125 563.539062 278.902344 563.898438 279.066406 564.242188 C 279.226562 564.585938 279.425781 564.90625 279.664062 565.207031 C 279.898438 565.503906 280.164062 565.773438 280.460938 566.011719 C 280.753906 566.253906 281.074219 566.457031 281.417969 566.621094 C 281.757812 566.789062 282.113281 566.917969 282.484375 567.003906 C 282.855469 567.089844 283.230469 567.132812 283.613281 567.136719 C 284.46875 567.128906 285.273438 566.921875 286.027344 566.511719 C 361.96875 524.824219 394.3125 480.296875 387.828125 426.40625 C 387.769531 425.941406 387.644531 425.492188 387.457031 425.058594 C 387.273438 424.628906 387.03125 424.230469 386.734375 423.863281 C 386.4375 423.5 386.097656 423.183594 385.710938 422.914062 C 385.324219 422.644531 384.910156 422.433594 384.464844 422.277344 Z M 291.183594 551.992188 L 301.070312 511.3125 L 378.464844 437.925781 C 379.089844 480.460938 351.035156 517.070312 291.183594 551.992188 Z M 291.183594 551.992188 " fill-opacity="1" fill-rule="nonzero"/><path fill="#231f20" d="M 184.246094 617.160156 C 182.390625 615.242188 180.375 613.503906 178.207031 611.945312 C 168.296875 604.835938 154.039062 599.71875 138.835938 598.109375 C 116.5625 595.753906 60.558594 598.472656 21.570312 674.636719 C 21.472656 674.824219 21.386719 675.019531 21.3125 675.222656 C 21.242188 675.421875 21.183594 675.625 21.136719 675.832031 C 21.089844 676.042969 21.054688 676.253906 21.035156 676.464844 C 21.015625 676.675781 21.011719 676.890625 21.015625 677.101562 C 21.023438 677.316406 21.046875 677.527344 21.078125 677.738281 C 21.113281 677.949219 21.160156 678.15625 21.222656 678.359375 C 21.28125 678.566406 21.355469 678.765625 21.441406 678.960938 C 21.527344 679.15625 21.625 679.34375 21.734375 679.527344 C 21.84375 679.710938 21.964844 679.886719 22.097656 680.050781 C 22.230469 680.21875 22.371094 680.378906 22.523438 680.527344 C 22.675781 680.675781 22.839844 680.816406 23.007812 680.945312 C 23.179688 681.074219 23.355469 681.191406 23.539062 681.296875 C 23.726562 681.402344 23.917969 681.496094 24.113281 681.578125 C 24.308594 681.660156 24.511719 681.730469 24.71875 681.785156 C 24.921875 681.84375 25.132812 681.886719 25.34375 681.917969 C 25.554688 681.945312 25.765625 681.960938 25.980469 681.964844 L 47.125 682.207031 C 32.503906 707.359375 24.46875 740.003906 21.949219 784.148438 C 21.929688 784.492188 21.941406 784.832031 21.992188 785.171875 C 22.039062 785.515625 22.121094 785.84375 22.238281 786.167969 C 22.355469 786.492188 22.503906 786.800781 22.683594 787.09375 C 22.863281 787.386719 23.074219 787.65625 23.308594 787.90625 C 23.542969 788.15625 23.804688 788.378906 24.085938 788.574219 C 24.367188 788.769531 24.667969 788.933594 24.984375 789.070312 C 25.300781 789.203125 25.628906 789.304688 25.964844 789.371094 C 26.300781 789.4375 26.640625 789.46875 26.984375 789.464844 L 27.246094 789.464844 C 35.90625 788.972656 44.515625 788.023438 53.078125 786.625 C 61.636719 785.222656 70.101562 783.375 78.464844 781.078125 C 86.828125 778.785156 95.050781 776.054688 103.128906 772.894531 C 111.203125 769.730469 119.09375 766.152344 126.792969 762.15625 L 125.441406 783.402344 C 125.382812 784.320312 125.558594 785.1875 125.972656 786.003906 C 126.386719 786.824219 126.980469 787.480469 127.753906 787.976562 C 128.527344 788.46875 129.371094 788.734375 130.289062 788.765625 C 131.207031 788.796875 132.066406 788.59375 132.875 788.15625 C 201.6875 750.679688 211.835938 704.378906 208.253906 672.136719 C 205.414062 646.882812 193.550781 626.664062 184.246094 617.160156 Z M 140.507812 608.480469 L 140.910156 608.480469 L 142.5 608.742188 C 143.105469 608.742188 143.730469 608.921875 144.3125 609.042969 C 144.898438 609.164062 145.339844 609.246094 145.863281 609.347656 L 147.59375 609.707031 L 149.066406 610.050781 C 149.628906 610.191406 150.171875 610.3125 150.71875 610.472656 L 152.148438 610.855469 L 153.71875 611.320312 L 155.066406 611.742188 L 156.558594 612.246094 L 157.847656 612.710938 L 159.277344 613.253906 L 160.464844 613.734375 L 161.832031 614.300781 L 162.960938 614.804688 L 164.230469 615.40625 L 165.277344 615.929688 L 166.484375 616.554688 L 167.453125 617.078125 L 168.578125 617.722656 L 169.464844 618.265625 L 170.511719 618.933594 C 170.773438 619.09375 171.058594 619.273438 171.296875 619.457031 L 172.285156 620.140625 L 172.988281 620.625 L 173.917969 621.347656 L 174.5 621.8125 L 175.40625 622.597656 L 175.851562 622.980469 L 177.019531 624.109375 C 177.542969 624.671875 178.085938 625.253906 178.628906 625.898438 C 178.832031 626.101562 179.011719 626.34375 179.191406 626.566406 C 179.375 626.785156 179.917969 627.410156 180.28125 627.875 L 180.945312 628.738281 L 181.933594 630.046875 L 182.617188 631.054688 L 183.5625 632.425781 L 184.269531 633.53125 L 185.175781 634.960938 C 185.414062 635.363281 185.65625 635.769531 185.878906 636.171875 C 186.101562 636.574219 186.460938 637.15625 186.746094 637.679688 C 187.027344 638.203125 187.226562 638.527344 187.449219 638.96875 C 187.671875 639.414062 188.011719 639.996094 188.273438 640.539062 C 188.539062 641.085938 188.738281 641.445312 188.960938 641.910156 C 189.179688 642.375 189.503906 642.996094 189.765625 643.5625 C 190.027344 644.125 190.1875 644.507812 190.410156 644.992188 C 190.632812 645.472656 190.914062 646.140625 191.15625 646.703125 C 191.398438 647.265625 191.578125 647.710938 191.78125 648.214844 C 191.980469 648.71875 192.261719 649.382812 192.484375 649.984375 C 192.707031 650.589844 192.886719 651.011719 193.066406 651.535156 C 193.25 652.058594 193.511719 652.765625 193.710938 653.390625 L 194.257812 655 C 194.457031 655.625 194.660156 656.269531 194.839844 656.914062 L 195.324219 658.542969 C 195.503906 659.210938 195.6875 659.851562 195.847656 660.558594 C 196.007812 661.261719 196.148438 661.664062 196.269531 662.230469 C 196.390625 662.792969 196.59375 663.597656 196.734375 664.242188 L 197.097656 665.914062 C 197.21875 666.621094 197.335938 667.34375 197.480469 668.050781 C 197.621094 668.753906 197.660156 669.15625 197.761719 669.722656 C 197.761719 669.863281 197.761719 670.003906 197.761719 670.144531 C 147.976562 699.425781 112.675781 705.507812 104.519531 696.203125 C 96.363281 686.898438 106.492188 654.09375 140.507812 608.378906 Z M 136.078125 774.84375 L 137.425781 753.941406 C 137.484375 753.023438 137.304688 752.15625 136.890625 751.335938 C 136.472656 750.519531 135.875 749.863281 135.101562 749.371094 C 134.324219 748.875 133.476562 748.617188 132.558594 748.585938 C 131.640625 748.558594 130.78125 748.765625 129.972656 749.207031 C 98.277344 766.566406 65.53125 776.636719 32.363281 779.15625 C 35.421875 735.273438 44.445312 703.734375 60.273438 680.234375 C 60.796875 679.472656 61.085938 678.632812 61.144531 677.710938 C 61.203125 676.792969 61.019531 675.921875 60.601562 675.101562 C 60.179688 674.277344 59.582031 673.621094 58.800781 673.132812 C 58.019531 672.640625 57.167969 672.382812 56.246094 672.359375 L 34.398438 672.058594 C 64.886719 617.683594 103.511719 607.472656 128.726562 607.613281 C 102.726562 643.863281 82.125 685.8125 97.046875 702.871094 C 101.355469 707.804688 108.507812 710.179688 117.910156 710.179688 C 137.144531 710.179688 165.839844 700.109375 198.828125 681.261719 C 199.390625 708.347656 187.609375 744.03125 136.078125 774.742188 Z M 136.078125 774.84375 " fill-opacity="1" fill-rule="nonzero"/><path fill="#231f20" d="M 783.933594 22.308594 C 783.382812 21.824219 782.753906 21.476562 782.050781 21.269531 C 781.347656 21.0625 780.632812 21.011719 779.90625 21.117188 C 732.746094 27.710938 686.660156 38.785156 641.65625 54.347656 C 639.441406 55.132812 637.203125 55.898438 634.988281 56.722656 C 497.542969 105.984375 379.511719 195.15625 284.074219 321.789062 C 232.136719 319.453125 191.4375 324.203125 160.042969 336.289062 C 120.003906 351.691406 94.691406 379.765625 84.824219 419.800781 C 84.628906 420.597656 84.628906 421.394531 84.820312 422.1875 C 85.011719 422.984375 85.375 423.691406 85.910156 424.3125 C 86.449219 424.9375 87.101562 425.398438 87.867188 425.703125 C 88.628906 426.003906 89.421875 426.113281 90.242188 426.023438 C 138.574219 420.871094 179.714844 421.394531 215.101562 427.574219 C 207.1875 441.671875 199.472656 456.03125 192.101562 470.652344 C 191.757812 471.351562 191.589844 472.089844 191.589844 472.867188 C 191.589844 473.644531 191.757812 474.382812 192.101562 475.082031 C 195.0625 481.285156 198.144531 487.304688 201.285156 493.066406 L 151.300781 521.863281 C 150.828125 522.132812 150.414062 522.472656 150.050781 522.878906 C 149.691406 523.285156 149.402344 523.738281 149.1875 524.238281 C 148.972656 524.734375 148.84375 525.257812 148.800781 525.796875 C 148.753906 526.339844 148.796875 526.875 148.925781 527.402344 C 151.585938 538.558594 155.007812 549.472656 159.195312 560.148438 C 159.277344 560.402344 159.378906 560.652344 159.496094 560.894531 C 165.515625 576.136719 173.296875 590.421875 182.839844 603.746094 C 183 604.117188 183.207031 604.460938 183.460938 604.773438 C 183.609375 604.945312 183.769531 605.097656 183.945312 605.238281 C 190.210938 613.761719 197.15625 621.683594 204.785156 629.011719 C 212.414062 636.339844 220.609375 642.960938 229.378906 648.878906 L 229.539062 649.039062 C 229.910156 649.367188 230.328125 649.621094 230.789062 649.804688 C 243.117188 657.976562 256.144531 664.808594 269.875 670.304688 L 270.117188 670.40625 C 277.386719 673.328125 284.921875 675.984375 292.792969 678.339844 C 293.261719 678.480469 293.738281 678.546875 294.222656 678.542969 C 295.140625 678.546875 295.996094 678.3125 296.785156 677.847656 C 297.578125 677.382812 298.191406 676.746094 298.632812 675.945312 L 328.238281 622.515625 C 334.804688 626.402344 341.730469 630.25 348.902344 633.976562 C 349.625 634.355469 350.398438 634.542969 351.214844 634.539062 C 352.15625 634.539062 353.027344 634.296875 353.835938 633.8125 C 362.695312 628.4375 371.414062 623.039062 379.855469 617.703125 C 387.183594 652.382812 389.238281 692.882812 386.117188 740.710938 C 386.09375 741.054688 386.109375 741.394531 386.15625 741.734375 C 386.203125 742.074219 386.285156 742.40625 386.402344 742.730469 C 386.519531 743.054688 386.664062 743.363281 386.84375 743.65625 C 387.023438 743.949219 387.230469 744.222656 387.464844 744.472656 C 387.699219 744.722656 387.957031 744.949219 388.238281 745.144531 C 388.519531 745.34375 388.816406 745.511719 389.132812 745.648438 C 389.449219 745.785156 389.773438 745.890625 390.109375 745.960938 C 390.449219 746.03125 390.789062 746.066406 391.132812 746.066406 C 391.609375 746.070312 392.082031 746.003906 392.539062 745.867188 C 432.050781 734.386719 459 707.964844 472.832031 667.324219 C 483.367188 636.25 486.589844 596.578125 482.601562 546.492188 C 502.027344 531.726562 520.535156 516.695312 538.121094 501.402344 C 538.585938 501.125 538.988281 500.777344 539.332031 500.355469 C 653.457031 401.171875 728.632812 293.070312 763.03125 178.140625 C 763.390625 176.992188 763.714844 175.84375 764.058594 174.695312 L 764.277344 173.890625 C 771.25 149.855469 776.523438 125.453125 780.101562 100.683594 C 783.679688 75.914062 785.527344 51.019531 785.644531 25.992188 C 785.636719 25.285156 785.480469 24.609375 785.183594 23.96875 C 784.886719 23.324219 784.46875 22.769531 783.933594 22.308594 Z M 96.523438 415.171875 C 115.855469 352.054688 178.40625 325.574219 292.230469 332.28125 L 234.734375 421.25 C 207.492188 414.984375 179.898438 412.011719 151.945312 412.332031 C 134.585938 412.332031 116.113281 413.277344 96.523438 415.171875 Z M 170.414062 560.894531 L 224.34375 529.558594 C 224.566406 529.878906 224.828125 530.222656 225.070312 530.542969 C 225.996094 531.832031 226.941406 533.121094 227.886719 534.371094 C 228.835938 535.617188 230.203125 537.371094 231.351562 538.859375 C 232.5 540.351562 233.367188 541.339844 234.273438 542.546875 C 235.480469 544.058594 236.730469 545.527344 237.957031 547.015625 C 238.945312 548.164062 239.972656 549.351562 240.898438 550.5 L 241.5625 551.285156 L 188.578125 594.183594 C 181.410156 583.691406 175.355469 572.597656 170.414062 560.894531 Z M 206.21875 501.726562 C 206.742188 502.613281 207.285156 503.457031 207.789062 504.34375 C 208.617188 505.734375 209.460938 507.121094 210.308594 508.492188 C 211.152344 509.863281 212.320312 511.695312 213.328125 513.285156 C 214.335938 514.875 215.058594 516.003906 215.945312 517.3125 C 216.832031 518.621094 217.699219 519.949219 218.582031 521.238281 L 166.765625 551.449219 C 164.03125 543.996094 161.683594 536.421875 159.71875 528.730469 Z M 194.558594 602.417969 L 248.25 558.757812 C 249.699219 560.308594 251.167969 561.839844 252.636719 563.371094 C 253.382812 564.136719 254.109375 564.941406 254.875 565.707031 C 257.269531 568.164062 259.726562 570.578125 262.203125 572.957031 C 263.070312 573.78125 263.976562 574.585938 264.84375 575.390625 C 266.515625 576.964844 268.183594 578.535156 269.898438 580.066406 C 270.964844 581.03125 272.09375 581.976562 273.199219 582.945312 C 274.308594 583.910156 275.496094 584.957031 276.664062 585.964844 L 232.015625 638.324219 C 217.707031 628.203125 205.1875 616.214844 194.457031 602.359375 Z M 240.453125 644.003906 L 284.457031 592.410156 L 286.089844 593.699219 C 287.335938 594.707031 288.625 595.710938 289.914062 596.660156 C 291.203125 597.605469 292.996094 599.035156 294.585938 600.222656 L 298.613281 603.125 C 300.207031 604.269531 301.796875 605.417969 303.40625 606.546875 L 304.433594 607.25 L 269.65625 659.289062 C 259.511719 654.976562 249.777344 649.882812 240.453125 644.003906 Z M 291.808594 667.507812 C 287.5 666.136719 283.308594 664.6875 279.179688 663.136719 L 312.730469 612.789062 C 314.039062 613.65625 315.371094 614.480469 316.757812 615.328125 L 319.679688 617.21875 Z M 396.527344 733.964844 C 399.527344 679.40625 395.703125 634.195312 384.808594 596.136719 L 471.402344 535.054688 C 482.78125 648.535156 458.878906 712.09375 396.609375 733.964844 Z M 480.507812 525.449219 C 480.480469 525.230469 480.445312 525.019531 480.390625 524.804688 C 480.339844 524.59375 480.273438 524.386719 480.195312 524.183594 C 480.113281 523.980469 480.023438 523.785156 479.917969 523.59375 C 479.8125 523.402344 479.695312 523.21875 479.570312 523.042969 C 479.441406 522.867188 479.300781 522.699219 479.148438 522.542969 C 479 522.382812 478.839844 522.234375 478.671875 522.097656 C 478.5 521.960938 478.324219 521.835938 478.136719 521.722656 C 477.953125 521.609375 477.761719 521.507812 477.5625 521.417969 C 477.363281 521.328125 477.15625 521.253906 476.949219 521.1875 C 476.742188 521.125 476.527344 521.078125 476.3125 521.042969 C 476.097656 521.007812 475.882812 520.988281 475.664062 520.980469 C 475.445312 520.972656 475.226562 520.980469 475.011719 521 C 474.792969 521.023438 474.578125 521.058594 474.367188 521.105469 C 474.15625 521.15625 473.945312 521.21875 473.742188 521.292969 C 473.539062 521.371094 473.339844 521.460938 473.148438 521.5625 C 472.953125 521.664062 472.769531 521.777344 472.589844 521.90625 L 376.066406 589.972656 C 375.636719 590.277344 375.261719 590.644531 374.945312 591.066406 C 374.628906 591.492188 374.386719 591.953125 374.214844 592.453125 C 374.042969 592.953125 373.949219 593.46875 373.941406 593.996094 C 373.929688 594.527344 374 595.042969 374.15625 595.550781 C 375.300781 599.378906 376.347656 603.304688 377.355469 607.292969 C 368.816406 612.710938 359.976562 618.226562 350.953125 623.703125 C 343.222656 619.675781 335.808594 615.449219 328.800781 611.21875 C 306.042969 597.484375 285.144531 581.339844 266.109375 562.785156 C 255.53125 552.367188 245.738281 541.257812 236.734375 529.449219 C 227.734375 517.644531 219.609375 505.261719 212.359375 492.300781 C 208.878906 486.136719 205.453125 479.59375 202.171875 472.804688 C 209.640625 458.066406 217.476562 443.523438 225.472656 429.449219 C 228.957031 430.195312 232.378906 430.957031 235.742188 431.824219 C 236.15625 431.9375 236.582031 431.992188 237.011719 431.984375 C 237.863281 431.984375 238.660156 431.78125 239.40625 431.375 C 240.15625 430.964844 240.757812 430.40625 241.21875 429.691406 L 305.339844 330.488281 C 305.824219 329.738281 306.089844 328.917969 306.136719 328.023438 C 306.183594 327.132812 306.003906 326.289062 305.601562 325.492188 C 305.21875 324.710938 304.667969 324.078125 303.949219 323.585938 C 303.234375 323.09375 302.441406 322.808594 301.574219 322.734375 C 299.804688 322.59375 298.070312 322.511719 296.339844 322.390625 C 304.058594 312.324219 311.914062 302.496094 319.902344 292.910156 C 363.300781 399.078125 428.890625 464.914062 525.476562 499.085938 C 511.417969 511.089844 496.769531 522.953125 481.53125 534.671875 C 481.230469 531.632812 480.929688 528.550781 480.585938 525.46875 Z M 534.195312 491.453125 C 436.039062 458.347656 370.105469 392.375 327.050781 284.230469 C 413.644531 183.234375 516.835938 110.515625 634.484375 67.578125 C 666.808594 120.460938 704.707031 154.941406 753.304688 175.519531 C 719.589844 287.976562 646.003906 393.984375 534.277344 491.476562 Z M 775.292969 40.652344 C 775.292969 41.660156 775.292969 42.667969 775.171875 43.632812 C 775.171875 45.539062 775.09375 47.453125 774.933594 49.375 C 774.933594 50.5625 774.8125 51.769531 774.730469 52.957031 C 774.730469 54.667969 774.550781 56.359375 774.449219 58.074219 C 774.449219 59.339844 774.265625 60.609375 774.167969 61.878906 C 774.046875 63.511719 773.945312 65.121094 773.804688 66.753906 C 773.804688 68.0625 773.582031 69.371094 773.460938 70.78125 L 773.039062 75.433594 L 772.617188 79.460938 C 772.453125 81.011719 772.292969 82.542969 772.113281 84.070312 C 771.929688 85.601562 771.789062 86.789062 771.628906 88.097656 C 771.46875 89.410156 771.265625 91.121094 771.066406 92.628906 C 770.863281 94.140625 770.703125 95.347656 770.5 96.660156 C 770.300781 97.96875 770.097656 99.660156 769.878906 101.167969 C 769.65625 102.679688 769.453125 103.867188 769.253906 105.195312 C 769.050781 106.527344 768.789062 108.199219 768.527344 109.6875 C 768.265625 111.179688 768.085938 112.386719 767.84375 113.714844 C 767.601562 115.046875 767.339844 116.695312 767.078125 118.1875 C 766.816406 119.675781 766.574219 120.886719 766.3125 122.214844 L 765.46875 126.644531 C 765.183594 127.992188 764.921875 129.34375 764.640625 130.671875 C 764.359375 132 764.035156 133.632812 763.714844 135.082031 C 763.390625 136.53125 763.128906 137.78125 762.828125 139.109375 C 762.527344 140.441406 762.164062 142.03125 761.820312 143.5 C 761.480469 144.972656 761.199219 146.179688 760.875 147.527344 C 760.554688 148.878906 760.171875 150.449219 759.808594 151.898438 C 759.445312 153.347656 759.144531 154.558594 758.800781 155.925781 L 757.652344 160.257812 C 757.289062 161.585938 756.949219 162.914062 756.566406 164.285156 L 756.144531 165.773438 C 710.691406 146.238281 674.902344 113.695312 644.234375 64.113281 L 644.957031 63.871094 C 687.484375 49.160156 731.003906 38.515625 775.515625 31.933594 C 775.476562 34.832031 775.394531 37.753906 775.292969 40.652344 Z M 775.292969 40.652344 " fill-opacity="1" fill-rule="nonzero"/></svg>