<svg xmlns="http://www.w3.org/2000/svg" xmlns:xlink="http://www.w3.org/1999/xlink" width="1080" zoomAndPan="magnify" viewBox="0 0 810 809.999993" height="1080" preserveAspectRatio="xMidYMid meet" version="1.0"><defs><clipPath id="fd8da76d00"><path d="M 0 9.894531 L 800.105469 9.894531 L 800.105469 810 L 0 810 Z M 0 9.894531 " clip-rule="nonzero"/></clipPath><clipPath id="816dbacc20"><path d="M 400.054688 9.894531 C 179.109375 9.894531 0 189.003906 0 409.945312 C 0 630.890625 179.109375 810 400.054688 810 C 620.996094 810 800.105469 630.890625 800.105469 409.945312 C 800.105469 189.003906 620.996094 9.894531 400.054688 9.894531 Z M 400.054688 9.894531 " clip-rule="nonzero"/></clipPath><clipPath id="88ddccf612"><path d="M 118 227.6875 L 681.953125 227.6875 L 681.953125 592.1875 L 118 592.1875 Z M 118 227.6875 " clip-rule="nonzero"/></clipPath></defs><g clip-path="url(#fd8da76d00)"><g clip-path="url(#816dbacc20)"><path fill="#ff3131" d="M 0 9.894531 L 800.105469 9.894531 L 800.105469 810 L 0 810 Z M 0 9.894531 " fill-opacity="1" fill-rule="nonzero"/></g></g><g clip-path="url(#88ddccf612)"><path fill="#f6f5f9" d="M 213.984375 227.683594 C 160.839844 227.683594 118.054688 267.699219 118.054688 317.410156 L 118.054688 502.460938 C 118.054688 552.171875 160.839844 592.1875 213.984375 592.1875 L 586.097656 592.1875 C 639.242188 592.1875 682.023438 552.167969 682.023438 502.460938 L 682.023438 317.410156 C 682.023438 267.699219 639.242188 227.683594 586.097656 227.683594 Z M 328.449219 299.597656 L 517.609375 408.152344 L 519.628906 409.8125 L 331.03125 519.355469 L 328.585938 520.273438 L 328.015625 302.171875 L 328.445312 299.597656 Z M 328.449219 299.597656 " fill-opacity="1" fill-rule="nonzero"/></g></svg>